<svg xmlns="http://www.w3.org/2000/svg" width="32" height="32"><defs><clipPath id="a"><path data-name="長方形 21" transform="translate(61 186)" fill="#fff" stroke="#707070" d="M0 0h32v32H0z"/></clipPath></defs><g data-name="マスクグループ 8" transform="translate(-61 -186)" clip-path="url(#a)"><g data-name="グループ 38"><g data-name="合体 1" fill="#fff"><path d="M77 211.992l-2.995-5.24-.144-.252H68.5c-3.86 0-7-3.14-7-7s3.14-7 7-7h17c3.86 0 7 3.14 7 7s-3.14 7-7 7h-5.361l-.144.252-2.995 5.24z"/><path d="M77 210.985L79.848 206H85.5c3.584 0 6.5-2.916 6.5-6.5s-2.916-6.5-6.5-6.5h-17a6.507 6.507 0 00-6.5 6.5c0 3.584 2.916 6.5 6.5 6.5h5.652L77 210.985M77 213l-3.429-6H68.5a7.5 7.5 0 010-15h17a7.5 7.5 0 010 15h-5.071L77 213z" fill="#f86a40"/></g></g></g></svg>