<svg xmlns="http://www.w3.org/2000/svg" width="32" height="32"><defs><clipPath id="a"><path data-name="長方形 12" transform="translate(2115 1030)" fill="#6f6f6f" stroke="#707070" d="M0 0h32v32H0z"/></clipPath></defs><g data-name="マスクグループ 1" transform="translate(-2115 -1030)" clip-path="url(#a)"><path d="M2146.969 1055.024c0-8.969-7.972-6.976-7.972-13.952a6.378 6.378 0 00-.157-1.495 8.643 8.643 0 00-5.908-7.205 1.775 1.775 0 00.041-.379 1.993 1.993 0 00-3.986 0 1.782 1.782 0 00.041.381 8.818 8.818 0 00-6.02 8.516v.182c-.004 6.976-7.976 4.983-7.976 13.952 0 2.374 5.313 4.36 12.425 4.861a3.986 3.986 0 007.04 0c7.112-.5 12.425-2.486 12.425-4.861v-.021zm-6.206 1.686a34.13 34.13 0 01-5.817.955 3.986 3.986 0 00-7.941 0 34.049 34.049 0 01-5.816-.955 9.741 9.741 0 01-3.842-1.685 9.772 9.772 0 013.842-1.685 39.456 39.456 0 019.788-1.118 39.451 39.451 0 019.786 1.118 9.741 9.741 0 013.84 1.685 9.772 9.772 0 01-3.842 1.685z" fill="#fff"/></g></svg>