<svg xmlns="http://www.w3.org/2000/svg" width="32" height="32"><defs><clipPath id="a"><path data-name="長方形 26" transform="translate(98 249)" fill="#fff" stroke="#707070" d="M0 0h32v32H0z"/></clipPath></defs><g data-name="マスクグループ 12" transform="translate(-98 -249)" clip-path="url(#a)"><g data-name="グループ 44"><path data-name="長方形 27" fill="#fff" d="M98 255h8v20h-8z"/><path data-name="長方形 27 - アウトライン" d="M99 256v18h6v-18h-6m-1-1h8v20h-8z" fill="#f86a40"/><path data-name="長方形 28" fill="#fff" d="M107 255h8v20h-8z"/><path data-name="長方形 28 - アウトライン" d="M108 256v18h6v-18h-6m-1-1h8v20h-8z" fill="#f86a40"/><path data-name="長方形 29" fill="#fff" d="M113.898 260.183l6.784-4.24 9.54 15.264-6.784 4.24z"/><path data-name="長方形 29 - アウトライン" d="M115.276 260.501l8.48 13.568 5.088-3.18-8.48-13.568-5.088 3.18m-1.378-.318l6.784-4.24 9.54 15.264-6.784 4.24z" fill="#f86a40"/><path data-name="長方形 30" fill="#fff" d="M100 260h4v1h-4z"/><path data-name="長方形 30 - アウトライン" d="M100 260h4v1h-4z" fill="#f86a40"/><path data-name="長方形 31" fill="#fff" d="M109 260h4v1h-4z"/><path data-name="長方形 31 - アウトライン" d="M109 260h4v1h-4z" fill="#f86a40"/></g></g></svg>