<svg xmlns="http://www.w3.org/2000/svg" width="32" height="32"><defs><clipPath id="a"><path data-name="長方形 16" transform="translate(2115 1198)" fill="#6f6f6f" stroke="#707070" d="M0 0h32v32H0z"/></clipPath></defs><g data-name="マスクグループ 5" transform="translate(-2115 -1198)" clip-path="url(#a)"><g fill="#fff"><path data-name="パス 3" d="M2136.333 1221.184v-1.466a7.94 7.94 0 003.556-6.607c0-4.419 0-8-5.333-8s-5.333 3.581-5.333 8a7.939 7.939 0 003.556 6.606v1.466c-6.03.494-10.667 3.457-10.667 7.039H2147c0-3.582-4.636-6.544-10.667-7.038z"/><path data-name="パス 4" d="M2124.089 1221.87a16.872 16.872 0 015.549-2.234 10.07 10.07 0 01-1.127-1.636 10.185 10.185 0 01-1.289-4.889c0-2.39 0-4.647.85-6.489a5.788 5.788 0 014.428-3.319c-.475-2.125-1.726-3.525-5.056-3.525-5.333 0-5.333 3.581-5.333 8a7.939 7.939 0 003.556 6.606v1.466c-6.031.493-10.667 3.456-10.667 7.039h7.75a11.4 11.4 0 011.339-1.019z"/></g></g></svg>