<svg xmlns="http://www.w3.org/2000/svg" width="16" height="16"><defs><clipPath id="a"><path data-name="長方形 24" transform="translate(2107.535 401)" fill="#fff" stroke="#707070" d="M0 0h16v16H0z"/></clipPath></defs><g data-name="マスクグループ 10" transform="translate(-2107.535 -401)" clip-path="url(#a)"><path d="M2121.535 401h-12a1.5 1.5 0 00-1.5 1.5v13a1.5 1.5 0 001.5 1.5h12a1.5 1.5 0 001.5-1.5v-13a1.5 1.5 0 00-1.5-1.5zm-.5 14h-11v-12h11zm-9-7h7v1h-7zm0 2h7v1h-7zm0 2h7v1h-7zm0-6h7v1h-7z" fill="#fff"/></g></svg>