<svg xmlns="http://www.w3.org/2000/svg" width="32" height="32"><defs><clipPath id="a"><path data-name="長方形 14" transform="translate(2115 1114)" fill="#6f6f6f" stroke="#707070" d="M0 0h32v32H0z"/></clipPath></defs><g data-name="マスクグループ 3" transform="translate(-2115 -1114)" clip-path="url(#a)"><path d="M2131 1114a16 16 0 1016 16 16 16 0 00-16-16zm0 30a13.959 13.959 0 01-5.538-1.139l7.286-8.2a1 1 0 00.252-.661v-3a1 1 0 00-1-1c-3.531 0-7.256-3.671-7.293-3.707a1 1 0 00-.707-.293h-4a1 1 0 00-1 1v6a1 1 0 00.553.894l3.447 1.724v5.871a14.008 14.008 0 01-4.651-17.489H2122a1 1 0 00.707-.293l4-4a1 1 0 00.293-.707v-2.419a14.041 14.041 0 0110.134.831c-.13.109-.256.224-.376.345A6 6 0 002141 1128c.1 0 .2 0 .3-.007a23.475 23.475 0 01-.263 11.635.936.936 0 00-.026.163A13.956 13.956 0 012131 1144z" fill="#fff"/></g></svg>